<svg version="1.2" xmlns="http://www.w3.org/2000/svg" viewBox="0 0 120 19" width="120" height="19"><style>.a{fill:#e7711b}</style><path class="a" d="m18.3 6.6l-5.4-0.8-2.4-5.1q-0.1-0.2-0.3-0.3c-0.4-0.2-0.8-0.1-0.9 0.3l-2.5 5.1-5.3 0.8q-0.3 0.1-0.4 0.2-0.2 0.2-0.2 0.5 0 0.3 0.2 0.5l3.9 4-0.9 5.7q-0.1 0.2 0 0.3 0.1 0.2 0.2 0.3 0.2 0.2 0.4 0.2 0.2 0 0.3-0.1l4.9-2.7 4.8 2.7q0.2 0.1 0.4 0.1c0.4-0.1 0.6-0.5 0.6-0.8l-0.9-5.7 3.9-4q0.1-0.1 0.2-0.4c0-0.4-0.2-0.7-0.6-0.8z"/><path class="a" d="m43.3 6.6l-5.4-0.8-2.4-5.1q-0.1-0.2-0.3-0.3c-0.4-0.2-0.8-0.1-1 0.3l-2.4 5.1-5.4 0.8q-0.2 0.1-0.4 0.2-0.1 0.2-0.1 0.5 0 0.3 0.2 0.5l3.9 4-1 5.7q0 0.2 0.1 0.3 0.1 0.2 0.2 0.3 0.2 0.2 0.4 0.2 0.2 0 0.3-0.1l4.9-2.7 4.8 2.7q0.2 0.1 0.4 0.1c0.4-0.1 0.6-0.5 0.6-0.8l-1-5.7 3.9-4q0.2-0.1 0.2-0.4c0.1-0.4-0.2-0.7-0.5-0.8z"/><path class="a" d="m68.3 6.6l-5.4-0.8-2.5-5.1q-0.1-0.2-0.3-0.3c-0.3-0.2-0.7-0.1-0.9 0.3l-2.4 5.1-5.4 0.8q-0.2 0.1-0.4 0.2-0.2 0.2-0.2 0.5 0 0.3 0.2 0.5l3.9 4-0.9 5.7q0 0.2 0.1 0.3 0 0.2 0.2 0.3 0.2 0.2 0.3 0.2 0.2 0 0.4-0.1l4.8-2.7 4.9 2.7q0.2 0.1 0.4 0.1c0.4-0.1 0.6-0.5 0.5-0.8l-0.9-5.7 3.9-4q0.2-0.1 0.2-0.4c0.1-0.4-0.2-0.7-0.5-0.8z"/><path class="a" d="m93.8 6.6l-5.4-0.8-2.4-5.1q-0.1-0.2-0.3-0.3c-0.3-0.2-0.7-0.1-0.9 0.3l-2.4 5.1-5.4 0.8q-0.2 0.1-0.4 0.2-0.2 0.2-0.2 0.5 0 0.3 0.2 0.5l3.9 4-0.9 5.7q0 0.2 0 0.3 0.1 0.2 0.3 0.3 0.1 0.2 0.3 0.2 0.2 0 0.4-0.1l4.8-2.7 4.8 2.7q0.2 0.1 0.5 0.1c0.3-0.1 0.6-0.5 0.5-0.8l-0.9-5.7 3.9-4q0.2-0.1 0.2-0.4c0.1-0.4-0.2-0.7-0.6-0.8z"/><path class="a" d="m119.4 6.6l-5.4-0.8-2.4-5.1q-0.1-0.2-0.3-0.3c-0.4-0.2-0.8-0.1-0.9 0.3l-2.5 5.1-5.4 0.8q-0.2 0.1-0.3 0.2-0.2 0.2-0.2 0.5 0 0.3 0.2 0.5l3.9 4-0.9 5.7q-0.1 0.2 0 0.3 0.1 0.2 0.2 0.3 0.2 0.2 0.4 0.2 0.2 0 0.3-0.1l4.9-2.7 4.8 2.7q0.2 0.1 0.4 0.1c0.4-0.1 0.6-0.5 0.6-0.8l-0.9-5.7 3.9-4q0.1-0.1 0.2-0.4c0-0.4-0.2-0.7-0.6-0.8z"/></svg>